<svg id="Capa_1" data-name="Capa 1" xmlns="http://www.w3.org/2000/svg" viewBox="0 0 231.75 240.4"><defs><style>.cls-1{fill:#fff;}</style></defs><title>enigma-logo-white</title><path class="cls-1" d="M199.65,60.71s-60.5,13.5-105,43.75c-21.59,14.69-43.95,17.25-55.2,8.75-8.19-6.19-11.91-19-9.58-29C33,71,39.67,47.84,80.27,31.5c65.32-26.3,69.57,40.72,53.45,67.87S93,167.24,96.39,208.82c0,0,0-33.09,40.72-89.09,24.78-34.06,40.72-97.56-5.94-110.29S14.94,31.5,7.3,83.25s51.29,70.64,95,35.63C153.15,78.21,199.65,60.71,199.65,60.71Z" transform="translate(-6.63 -6.8)"/><path class="cls-1" d="M180.93,64.79s-2.06,2.18-1.46,3.37c0,0,.16.91,3.14,1.36l1.55,10.64A3.23,3.23,0,0,0,186.81,79L191,68.29l14.85-5.7,4.27,25.69s.26,1,1.76.68a2.47,2.47,0,0,0,1.94-2.47L219.6,57l13.8-5.47s6-3.4,4.84-6.83c0,0-2.48-3.48-9.55-1l-12.33,4.75-25.64-17.9a2.22,2.22,0,0,0-3,1.42l14.8,22.1L187.8,59.87l-10.63-4.73s-2,.07-2.36,1.08Z" transform="translate(-6.63 -6.8)"/><circle class="cls-1" cx="89.52" cy="213.4" r="8"/><path class="cls-1" d="M79.91,204.82c-31.41,2.25-59.76,4.48-59.76,17.89,0,15.91,39.93,24.5,77.5,24.5s77.5-8.59,77.5-24.5c0-13.31-28-15.51-59.08-17.84h0c33.28,2.46,53.05,11.25,53.05,17.84,0,7.72-27.2,18.5-71.5,18.5s-71.5-10.78-71.5-18.5c0-6.63,20.06-15.51,53.76-17.89" transform="translate(-6.63 -6.8)"/></svg>